<svg xmlns="http://www.w3.org/2000/svg" viewBox="0 0 16 16"><defs><clipPath id="a"><path fill="none" d="M0 1h16v14.62H0z"/></clipPath></defs><g clip-path="url(#a)"><path d="M15.87 1.43a2.67 2.67 0 0 1-1.2.34A3.07 3.07 0 0 1 12.82 1l-2.37 2.26s.69.24 1.38.42v6.61c-5.76-7.35-5.06-6.42-6.3-8.07a5.2 5.2 0 0 0-.42-.45 2.82 2.82 0 0 0-2-.75 2.51 2.51 0 0 0-2 .92A2.91 2.91 0 0 0 .34 4c0 .56.15.67.45.73H.9a1.51 1.51 0 0 1 1-1.18 3.5 3.5 0 0 1 .84-.26V7h-.82A1.23 1.23 0 0 0 1 8.33a1.63 1.63 0 0 0 .39 1.05 1.2 1.2 0 0 0 .95.45v-.26a.75.75 0 0 1 .1-.35c.06-.12.28-.12.38-.12s-.12 0 0 .09v3.3A3.92 3.92 0 0 0 0 15.41l.71-.3a4.3 4.3 0 0 1 1.87-.43 5.36 5.36 0 0 1 2.82.95L7 13.55s-1.27-.73-1.78-.94V6c.07.11.15.22.24.33l6.07 7.84c.9 1 1.56 1.46 2.26 1.46h.13V3.71l.16-.05.23-.1a4.12 4.12 0 0 0 1.07-.82 2.47 2.47 0 0 0 .47-.62 1.6 1.6 0 0 0 .17-.6zm-11 6.69v.25H4V8a1.23 1.23 0 0 0 .49.11.82.82 0 0 0 .38-.11zm-.16-2.9l.16.25v2.27a.79.79 0 0 1-.88 0V4.42c.13 0 .43.34.72.8m-.65 7.14H4V8.59h.88v3.91a2.84 2.84 0 0 0-.69-.15zm8.79-.84V3.86h.56v8.25a4.4 4.4 0 0 1-.56-.59" fill="#231f20"/></g></svg>